name D:\school\WTK\thesis\model\3dpredictsim\Results\debug_batch\Pog_s1_tmt_bCst_d05_k800_ig24.mot
datacolumns 128
datarows 4
range 0.00000000 0.03239847
endheader
time	pelvis_tilt	pelvis_list	pelvis_rotation	pelvis_tx	pelvis_ty	pelvis_tz	hip_flexion_l	hip_adduction_l	hip_rotation_l	hip_flexion_r	hip_adduction_r	hip_rotation_r	knee_angle_l	knee_angle_r	ankle_angle_l	ankle_angle_r	subtalar_angle_l	subtalar_angle_r	tmt_angle_l	tmt_angle_r	mtp_angle_l	mtp_angle_r	lumbar_extension	lumbar_bending	lumbar_rotation	arm_flex_l	arm_add_l	arm_rot_l	arm_flex_r	arm_add_r	arm_rot_r	elbow_flex_l	elbow_flex_r	pro_sup_l	pro_sup_r	glut_med1_l/activation	glut_med2_l/activation	glut_med3_l/activation	glut_min1_l/activation	glut_min2_l/activation	glut_min3_l/activation	semimem_l/activation	semiten_l/activation	bifemlh_l/activation	bifemsh_l/activation	sar_l/activation	add_long_l/activation	add_brev_l/activation	add_mag1_l/activation	add_mag2_l/activation	add_mag3_l/activation	tfl_l/activation	pect_l/activation	grac_l/activation	glut_max1_l/activation	glut_max2_l/activation	glut_max3_l/activation	iliacus_l/activation	psoas_l/activation	quad_fem_l/activation	gem_l/activation	peri_l/activation	rect_fem_l/activation	vas_med_l/activation	vas_int_l/activation	vas_lat_l/activation	med_gas_l/activation	lat_gas_l/activation	soleus_l/activation	tib_post_l/activation	flex_dig_l/activation	flex_hal_l/activation	tib_ant_l/activation	per_brev_l/activation	per_long_l/activation	per_tert_l/activation	ext_dig_l/activation	ext_hal_l/activation	ercspn_l/activation	intobl_l/activation	extobl_l/activation	glut_med1_r/activation	glut_med2_r/activation	glut_med3_r/activation	glut_min1_r/activation	glut_min2_r/activation	glut_min3_r/activation	semimem_r/activation	semiten_r/activation	bifemlh_r/activation	bifemsh_r/activation	sar_r/activation	add_long_r/activation	add_brev_r/activation	add_mag1_r/activation	add_mag2_r/activation	add_mag3_r/activation	tfl_r/activation	pect_r/activation	grac_r/activation	glut_max1_r/activation	glut_max2_r/activation	glut_max3_r/activation	iliacus_r/activation	psoas_r/activation	quad_fem_r/activation	gem_r/activation	peri_r/activation	rect_fem_r/activation	vas_med_r/activation	vas_int_r/activation	vas_lat_r/activation	med_gas_r/activation	lat_gas_r/activation	soleus_r/activation	tib_post_r/activation	flex_dig_r/activation	flex_hal_r/activation	tib_ant_r/activation	per_brev_r/activation	per_long_r/activation	per_tert_r/activation	ext_dig_r/activation	ext_hal_r/activation	ercspn_r/activation	intobl_r/activation	extobl_r/activation	
          0.00000000	         -2.92925159	         -2.19968945	          5.42622332	          0.00000000	          0.85839700	         -0.00209207	        -17.70988841	         -1.73721940	          7.21318244	         31.71212645	          3.13952443	         -1.88969287	         -7.96531530	        -15.61631920	         -0.11945956	          6.24866315	         11.36161469	         -1.80502066	          2.17870129	          0.04409377	         21.70999365	         -0.11629213	         -1.92591638	          0.64305736	         -1.86963149	          6.74043971	        -13.45468409	         16.13959662	         -8.87749504	        -13.56175086	          6.08893357	         36.67351461	         15.71319880	         86.51662706	         86.51662706	          0.30858113	          0.10607131	          0.07507916	          0.33221050	          0.22164860	          0.11014241	          0.05000064	          0.05000010	          0.05000007	          0.07581904	          0.11012871	          0.05299184	          0.05000025	          0.05000022	          0.05000045	          0.05000028	          0.31288434	          0.05000238	          0.05000024	          0.05000113	          0.05000076	          0.05000047	          0.35004646	          0.57411064	          0.05000005	          0.05000021	          0.05000012	          0.18793530	          0.07790913	          0.05000537	          0.05000796	          0.30591764	          0.41444312	          0.30183513	          0.25681401	          0.26725928	          0.34015912	          0.05000001	          0.06961794	          0.17414829	          0.05000015	          0.05000003	          0.05000010	          0.05000001	          0.05000000	          0.05000001	          0.05000009	          0.05000013	          0.05007841	          0.05000010	          0.05000014	          0.05000038	          0.05899952	          0.05899945	          0.14949569	          0.05000025	          0.05000117	          0.09896623	          0.15722599	          0.19081892	          0.16057398	          0.10463784	          0.05899940	          0.05044090	          0.05899979	          0.05036309	          0.06961879	          0.10234025	          0.05000018	          0.05000027	          0.21845542	          0.05099691	          0.05000075	          0.05000062	          0.12249036	          0.12645052	          0.10505589	          0.05899953	          0.05381836	          0.05899956	          0.05000003	          0.05000044	          0.05000064	          0.50115915	          0.35335170	          0.20491753	          0.27188762	          0.55383500	          0.23560753	          0.06430731	          0.10532475	          0.10812352	
          0.01079949	         -2.92334445	         -2.29527581	          5.69435084	          0.01624458	          0.85737928	         -0.00188519	        -17.50273208	         -2.03164229	          6.97943123	         31.06278244	          3.52513785	         -1.69012874	        -10.00166447	        -15.42324114	         -0.91312618	          5.67192259	         12.33720532	         -2.28784538	          1.87582054	          0.05346258	         22.79987029	         -0.10095774	         -1.73035815	          0.87306664	         -1.94464095	          6.55725685	        -13.46617014	         16.39186807	         -9.88714113	        -13.55637856	          5.95259867	         37.75126018	         15.55709078	         86.51662706	         86.51662706	          0.26151135	          0.08989160	          0.06362733	          0.28153641	          0.18783918	          0.09334173	          0.05000296	          0.05000037	          0.05000074	          0.06425390	          0.09333023	          0.13671633	          0.10242681	          0.06961889	          0.05044557	          0.06664736	          0.26515821	          0.07236188	          0.05031109	          0.05000164	          0.05000118	          0.05000155	          0.29665171	          0.51518081	          0.05249883	          0.06961558	          0.05899972	          0.15926837	          0.06602583	          0.15926402	          0.15826258	          0.25925410	          0.35122552	          0.25579433	          0.21764063	          0.22649277	          0.28827265	          0.05000000	          0.05899872	          0.14932531	          0.05000004	          0.05000000	          0.05000005	          0.05000002	          0.06961899	          0.05000002	          0.05095634	          0.05000063	          0.05000012	          0.05000184	          0.05000087	          0.05000029	          0.05000002	          0.05000007	          0.12669224	          0.05000007	          0.05000063	          0.08387052	          0.13324347	          0.28114948	          0.19860034	          0.09155060	          0.05000012	          0.05000129	          0.05000041	          0.05899943	          0.05899966	          0.11008855	          0.05000016	          0.05000033	          0.52140772	          0.12656542	          0.09708875	          0.06961908	          0.22207014	          0.22465868	          0.19192970	          0.05000000	          0.05000001	          0.05000000	          0.05226619	          0.06961879	          0.05832748	          0.57528506	          0.35098671	          0.21539607	          0.45361146	          0.58821280	          0.22949612	          0.05449812	          0.08925891	          0.09163076	
          0.02159898	         -2.91326502	         -2.38981388	          5.93802237	          0.03277848	          0.85633183	         -0.00169460	        -17.22368441	         -2.31638572	          6.73418682	         30.26113061	          3.84924341	         -1.41932445	        -12.16004023	        -15.71680999	         -1.87227451	          5.10657713	         13.24512121	         -2.80007647	          1.55986492	         -0.03679333	         23.72720467	         -0.14931616	         -1.51372034	          1.10826178	         -2.00945202	          6.29356448	        -13.47769597	         16.58057645	        -10.90959290	        -13.55472246	          5.85831917	         38.79372250	         15.43185827	         86.51662706	         86.51662706	          0.36475651	          0.07617988	          0.05392196	          0.23859204	          0.15918693	          0.07910375	          0.05000112	          0.05000026	          0.05000024	          0.05445288	          0.07909417	          0.15662294	          0.16421936	          0.05899997	          0.05899855	          0.05648192	          0.22471218	          0.08391093	          0.05450091	          0.05009149	          0.05054933	          0.05899825	          0.25140164	          0.48520192	          0.05899952	          0.05899690	          0.05000016	          0.13497417	          0.09305410	          0.13497062	          0.13412192	          0.21970845	          0.29765089	          0.21677641	          0.18444255	          0.19194447	          0.24430066	          0.05000003	          0.05000019	          0.19407150	          0.05000006	          0.05000017	          0.05000013	          0.05704749	          0.05899958	          0.05499593	          0.29089534	          0.05000006	          0.31542068	          0.05000015	          0.05000014	          0.27203823	          0.08749932	          0.05000034	          0.12968214	          0.05000009	          0.05000040	          0.08214988	          0.19905005	          0.23826415	          0.16830728	          0.12279319	          0.05000039	          0.06260850	          0.13298175	          0.05000008	          0.05000012	          0.09329613	          0.05899948	          0.05000168	          0.44187415	          0.10725966	          0.17484283	          0.05899965	          0.18819641	          0.19039011	          0.16265348	          0.05899956	          0.05899956	          0.05899956	          0.05899952	          0.05899951	          0.05899955	          0.48753325	          0.34004324	          0.18254041	          0.38441998	          0.61597447	          0.19448967	          0.05000003	          0.09826415	          0.07765375	
          0.03239847	         -2.90089638	         -2.48279002	          6.14928228	          0.04942473	          0.85526626	         -0.00149253	        -16.85156187	         -2.58894498	          6.48865350	         29.32531374	          4.13552030	         -1.13963102	        -14.45755953	        -16.01676652	         -2.94652432	          4.70360635	         14.07958049	         -3.32500413	          1.20898386	         -0.01714768	         24.39108646	         -0.15790705	         -1.29396354	          1.34621483	         -2.06479224	          5.97533784	        -13.49426178	         16.71874108	        -11.89837816	        -13.55626334	          5.82599637	         39.78880793	         15.30678988	         86.51662706	         86.51662706	          0.30911814	          0.06455970	          0.05000001	          0.30230067	          0.13490519	          0.06703759	          0.05000147	          0.05000006	          0.05000005	          0.05000010	          0.06702992	          0.15934802	          0.13917013	          0.05000047	          0.05000035	          0.05000020	          0.19043623	          0.07111265	          0.05000020	          0.05000039	          0.05000024	          0.05000015	          0.21305380	          0.43916811	          0.05000003	          0.05000014	          0.05000008	          0.11438573	          0.10075717	          0.11438313	          0.11438299	          0.18619494	          0.25224834	          0.18371015	          0.15630839	          0.16266603	          0.20703599	          0.11104188	          0.14773831	          0.16446868	          0.07692980	          0.17302244	          0.05000083	          0.08843841	          0.05000001	          0.05000001	          0.34242809	          0.30068418	          0.37752147	          0.18054761	          0.17979940	          0.23054274	          0.07415260	          0.11536525	          0.10990096	          0.08214935	          0.05000102	          0.06961907	          0.16868772	          0.20192040	          0.14270243	          0.15572653	          0.05000013	          0.05305865	          0.11269808	          0.22787801	          0.17092669	          0.13829024	          0.05000005	          0.05000005	          0.37447235	          0.09089881	          0.14817314	          0.05000007	          0.15948997	          0.22207714	          0.16274122	          0.05000002	          0.05000003	          0.05000000	          0.05000000	          0.05000018	          0.05000009	          0.61196709	          0.37664771	          0.18821068	          0.64209752	          0.66387802	          0.34478900	          0.07253711	          0.08327532	          0.06580874	
